<svg width="29" height="29" viewBox="0 0 29 29" fill="none" xmlns="http://www.w3.org/2000/svg">
    <path d="M9.79696 26.9501H5.01111C2.63003 26.9501 1.48096 25.8484 1.48096 23.5739V4.85699C1.48096 2.58253 2.64188 1.48083 5.01111 1.48083H9.79696C12.178 1.48083 13.3271 2.58253 13.3271 4.85699V23.5739C13.3271 25.8484 12.1662 26.9501 9.79696 26.9501ZM5.01111 3.25776C3.50665 3.25776 3.25788 3.66053 3.25788 4.85699V23.5739C3.25788 24.7704 3.50665 25.1731 5.01111 25.1731H9.79696C11.3014 25.1731 11.5502 24.7704 11.5502 23.5739V4.85699C11.5502 3.66053 11.3014 3.25776 9.79696 3.25776H5.01111Z" fill="currentColor"/>
    <path d="M23.419 16.2885H18.6332C16.2521 16.2885 15.103 15.1868 15.103 12.9124V4.85699C15.103 2.58253 16.2639 1.48083 18.6332 1.48083H23.419C25.8001 1.48083 26.9492 2.58253 26.9492 4.85699V12.9124C26.9492 15.1868 25.7883 16.2885 23.419 16.2885ZM18.6332 3.25776C17.1287 3.25776 16.88 3.66053 16.88 4.85699V12.9124C16.88 14.1088 17.1287 14.5116 18.6332 14.5116H23.419C24.9235 14.5116 25.1723 14.1088 25.1723 12.9124V4.85699C25.1723 3.66053 24.9235 3.25776 23.419 3.25776H18.6332Z" fill="currentColor"/>
    <path d="M23.419 26.9496H18.6332C16.2521 26.9496 15.103 25.8479 15.103 23.5734V21.4411C15.103 19.1666 16.2639 18.0649 18.6332 18.0649H23.419C25.8001 18.0649 26.9492 19.1666 26.9492 21.4411V23.5734C26.9492 25.8479 25.7883 26.9496 23.419 26.9496ZM18.6332 19.8419C17.1287 19.8419 16.88 20.2446 16.88 21.4411V23.5734C16.88 24.7699 17.1287 25.1726 18.6332 25.1726H23.419C24.9235 25.1726 25.1723 24.7699 25.1723 23.5734V21.4411C25.1723 20.2446 24.9235 19.8419 23.419 19.8419H18.6332Z" fill="currentColor"/>
</svg>
