<svg width="46" height="46" viewBox="0 0 46 46" fill="none" xmlns="http://www.w3.org/2000/svg">
    <path d="M38.7362 14.9892L23.9779 23.5375C23.3837 23.8825 22.6362 23.8825 22.0229 23.5375L7.26458 14.9892C6.21041 14.3759 5.94208 12.9384 6.74708 12.0375C7.30291 11.405 7.93541 10.8875 8.60624 10.5234L18.9946 4.77336C21.2179 3.52753 24.8212 3.52753 27.0446 4.77336L37.4329 10.5234C38.1037 10.8875 38.7362 11.4242 39.2921 12.0375C40.0587 12.9384 39.7904 14.3759 38.7362 14.9892Z" fill="#5932EA"/>
    <path d="M21.9082 27.1015V40.1731C21.9082 41.6298 20.4324 42.5881 19.1291 41.9556C15.1807 40.0198 8.5299 36.3973 8.5299 36.3973C6.19157 35.0748 4.2749 31.7398 4.2749 28.999V19.109C4.2749 17.5948 5.86574 16.6365 7.16907 17.384L20.9499 25.3765C21.5249 25.7406 21.9082 26.3923 21.9082 27.1015Z" fill="#5932EA"/>
    <path d="M24.0933 27.1015V40.1731C24.0933 41.6298 25.5691 42.5881 26.8724 41.9556C30.8208 40.0198 37.4716 36.3973 37.4716 36.3973C39.8099 35.0748 41.7266 31.7398 41.7266 28.999V19.109C41.7266 17.5948 40.1358 16.6365 38.8324 17.384L25.0516 25.3765C24.4766 25.7406 24.0933 26.3923 24.0933 27.1015Z" fill="#5932EA"/>
</svg>
