<svg width="25" height="25" viewBox="0 0 25 25" fill="none" xmlns="http://www.w3.org/2000/svg">
    <path d="M9.52148 22.416H15.5215C20.5215 22.416 22.5215 20.416 22.5215 15.416V9.41602C22.5215 4.41602 20.5215 2.41602 15.5215 2.41602H9.52148C4.52148 2.41602 2.52148 4.41602 2.52148 9.41602V15.416C2.52148 20.416 4.52148 22.416 9.52148 22.416Z" stroke="currentColor" stroke-width="1.5" stroke-linecap="round" stroke-linejoin="round"/>
    <path d="M16.0913 18.916V15.016" stroke="currentColor" stroke-width="1.5" stroke-miterlimit="10" stroke-linecap="round" stroke-linejoin="round"/>
    <path d="M16.0913 7.86602V5.91602" stroke="currentColor" stroke-width="1.5" stroke-miterlimit="10" stroke-linecap="round" stroke-linejoin="round"/>
    <path d="M16.0917 13.066C17.5276 13.066 18.6917 11.9019 18.6917 10.466C18.6917 9.03003 17.5276 7.86597 16.0917 7.86597C14.6558 7.86597 13.4917 9.03003 13.4917 10.466C13.4917 11.9019 14.6558 13.066 16.0917 13.066Z" stroke="currentColor" stroke-width="1.5" stroke-miterlimit="10" stroke-linecap="round" stroke-linejoin="round"/>
    <path d="M8.95166 18.9161V16.9661" stroke="currentColor" stroke-width="1.5" stroke-miterlimit="10" stroke-linecap="round" stroke-linejoin="round"/>
    <path d="M8.95166 9.81602V5.91602" stroke="currentColor" stroke-width="1.5" stroke-miterlimit="10" stroke-linecap="round" stroke-linejoin="round"/>
    <path d="M8.95156 16.966C10.3875 16.966 11.5516 15.8019 11.5516 14.366C11.5516 12.9301 10.3875 11.766 8.95156 11.766C7.51562 11.766 6.35156 12.9301 6.35156 14.366C6.35156 15.8019 7.51562 16.966 8.95156 16.966Z" stroke="currentColor" stroke-width="1.5" stroke-miterlimit="10" stroke-linecap="round" stroke-linejoin="round"/>
</svg>
