<svg width="25" height="25" viewBox="0 0 25 25" fill="none" xmlns="http://www.w3.org/2000/svg">
    <path d="M18.6618 22.0363C17.7818 22.2963 16.7418 22.4163 15.5218 22.4163H9.52184C8.30184 22.4163 7.26184 22.2963 6.38184 22.0363C6.60184 19.4363 9.27184 17.3862 12.5218 17.3862C15.7718 17.3862 18.4418 19.4363 18.6618 22.0363Z" stroke="currentColor" stroke-width="1.5" stroke-linecap="round" stroke-linejoin="round"/>
    <path d="M15.522 2.41626H9.52197C4.52197 2.41626 2.52197 4.41626 2.52197 9.41626V15.4163C2.52197 19.1963 3.66197 21.2663 6.38197 22.0363C6.60197 19.4363 9.27197 17.3862 12.522 17.3862C15.772 17.3862 18.442 19.4363 18.662 22.0363C21.382 21.2663 22.522 19.1963 22.522 15.4163V9.41626C22.522 4.41626 20.522 2.41626 15.522 2.41626ZM12.522 14.5862C10.542 14.5862 8.94197 12.9763 8.94197 10.9963C8.94197 9.01628 10.542 7.41626 12.522 7.41626C14.502 7.41626 16.102 9.01628 16.102 10.9963C16.102 12.9763 14.502 14.5862 12.522 14.5862Z" stroke="currentColor" stroke-width="1.5" stroke-linecap="round" stroke-linejoin="round"/>
    <path d="M16.1019 10.9963C16.1019 12.9763 14.5019 14.5862 12.5219 14.5862C10.5419 14.5862 8.94189 12.9763 8.94189 10.9963C8.94189 9.01628 10.5419 7.41626 12.5219 7.41626C14.5019 7.41626 16.1019 9.01628 16.1019 10.9963Z" stroke="currentColor" stroke-width="1.5" stroke-linecap="round" stroke-linejoin="round"/>
</svg>
