<svg width="24" height="25" viewBox="0 0 24 25" fill="none" xmlns="http://www.w3.org/2000/svg">
    <path d="M18.0395 13.9658C17.6195 14.3758 17.3795 14.9658 17.4395 15.5958C17.5295 16.6758 18.5195 17.4658 19.5995 17.4658H21.4995V18.6558C21.4995 20.7258 19.8095 22.4158 17.7395 22.4158H7.62952C7.93952 22.1558 8.20951 21.8358 8.41951 21.4758C8.78951 20.8758 8.99951 20.1658 8.99951 19.4158C8.99951 17.2058 7.20951 15.4158 4.99951 15.4158C4.05951 15.4158 3.18951 15.7458 2.49951 16.2958V11.9258C2.49951 9.85578 4.18951 8.16577 6.25951 8.16577H17.7395C19.8095 8.16577 21.4995 9.85578 21.4995 11.9258V13.3658H19.4795C18.9195 13.3658 18.4095 13.5858 18.0395 13.9658Z" stroke="currentColor" stroke-width="1.5" stroke-linecap="round" stroke-linejoin="round"/>
    <path d="M2.49951 12.8258V8.25588C2.49951 7.06588 3.22951 6.00583 4.33951 5.58583L12.2795 2.58583C13.5195 2.11583 14.8495 3.03586 14.8495 4.36586V8.16585" stroke="currentColor" stroke-width="1.5" stroke-linecap="round" stroke-linejoin="round"/>
    <path d="M22.5583 14.386V16.4461C22.5583 16.9961 22.1183 17.4461 21.5583 17.4661H19.5983C18.5183 17.4661 17.5283 16.6761 17.4383 15.5961C17.3783 14.9661 17.6183 14.3761 18.0383 13.9661C18.4083 13.5861 18.9183 13.3661 19.4783 13.3661H21.5583C22.1183 13.3861 22.5583 13.836 22.5583 14.386Z" stroke="currentColor" stroke-width="1.5" stroke-linecap="round" stroke-linejoin="round"/>
    <path d="M6.99951 12.4159H13.9995" stroke="currentColor" stroke-width="1.5" stroke-linecap="round" stroke-linejoin="round"/>
    <path d="M8.99951 19.4159C8.99951 20.1659 8.78951 20.8759 8.41951 21.4759C8.20951 21.8359 7.93952 22.1559 7.62952 22.4159C6.92952 23.0459 6.00951 23.4159 4.99951 23.4159C3.53951 23.4159 2.26951 22.6359 1.57951 21.4759C1.20951 20.8759 0.999512 20.1659 0.999512 19.4159C0.999512 18.1559 1.57951 17.0259 2.49951 16.2959C3.18951 15.7459 4.05951 15.4159 4.99951 15.4159C7.20951 15.4159 8.99951 17.2059 8.99951 19.4159Z" stroke="currentColor" stroke-width="1.5" stroke-miterlimit="10" stroke-linecap="round" stroke-linejoin="round"/>
    <path d="M3.44092 19.4154L4.43091 20.4054L6.56091 18.4354" stroke="currentColor" stroke-width="1.5" stroke-linecap="round" stroke-linejoin="round"/>
</svg>
