<svg width="60" height="16" viewBox="0 0 60 16" fill="none" xmlns="http://www.w3.org/2000/svg">
    <path d="M1.76 5.952H0.384V4.16H1.76V1.76H3.856V4.16H5.776V5.952H3.856V8.992C3.856 9.17333 3.872 9.344 3.904 9.504C3.94667 9.65333 4.02133 9.78133 4.128 9.888C4.27733 10.0587 4.49067 10.144 4.768 10.144C4.94933 10.144 5.09333 10.128 5.2 10.096C5.30667 10.0533 5.408 10 5.504 9.936L6.096 11.776C5.85067 11.8933 5.584 11.9787 5.296 12.032C5.01867 12.096 4.70933 12.128 4.368 12.128C3.97333 12.128 3.616 12.0693 3.296 11.952C2.98667 11.824 2.72533 11.6533 2.512 11.44C2.01067 10.96 1.76 10.2773 1.76 9.392V5.952ZM7.47787 4.16H9.44587V5.248H9.57387C9.66987 5.056 9.79788 4.88 9.95788 4.72C10.1179 4.56 10.2939 4.42133 10.4859 4.304C10.6885 4.18667 10.9019 4.096 11.1259 4.032C11.3605 3.968 11.5899 3.936 11.8139 3.936C12.0912 3.936 12.3259 3.96267 12.5179 4.016C12.7205 4.06933 12.8912 4.13867 13.0299 4.224L12.4699 6.128C12.3419 6.064 12.1979 6.016 12.0379 5.984C11.8885 5.94133 11.7019 5.92 11.4779 5.92C11.1899 5.92 10.9285 5.97867 10.6939 6.096C10.4592 6.20267 10.2565 6.35733 10.0859 6.56C9.92588 6.76267 9.79788 7.00267 9.70187 7.28C9.61654 7.54667 9.57387 7.84 9.57387 8.16V12H7.47787V4.16ZM18.673 11.168H18.545C18.2997 11.4667 18.001 11.7227 17.649 11.936C17.3077 12.1493 16.865 12.256 16.321 12.256C15.9157 12.256 15.5317 12.1867 15.169 12.048C14.817 11.92 14.5077 11.7387 14.241 11.504C13.9743 11.2693 13.7663 10.9867 13.617 10.656C13.4677 10.3253 13.393 9.96267 13.393 9.568C13.393 9.16267 13.473 8.8 13.633 8.48C13.793 8.14933 14.017 7.86667 14.305 7.632C14.593 7.39733 14.929 7.22133 15.313 7.104C15.7077 6.976 16.1343 6.912 16.593 6.912C17.105 6.912 17.5263 6.95467 17.857 7.04C18.1877 7.11467 18.4597 7.19467 18.673 7.28V7.04C18.673 6.624 18.5077 6.28267 18.177 6.016C17.8463 5.73867 17.4357 5.6 16.945 5.6C16.2197 5.6 15.6063 5.904 15.105 6.512L13.585 5.472C14.417 4.42667 15.553 3.904 16.993 3.904C18.209 3.904 19.137 4.192 19.777 4.768C20.417 5.33333 20.737 6.176 20.737 7.296V12H18.673V11.168ZM18.673 8.816C18.4277 8.69867 18.1717 8.608 17.905 8.544C17.649 8.46933 17.3663 8.432 17.057 8.432C16.5557 8.432 16.1663 8.544 15.889 8.768C15.6223 8.98133 15.489 9.248 15.489 9.568C15.489 9.888 15.617 10.144 15.873 10.336C16.1397 10.528 16.4437 10.624 16.785 10.624C17.0623 10.624 17.3183 10.576 17.553 10.48C17.7877 10.3733 17.985 10.24 18.145 10.08C18.3157 9.90933 18.4437 9.71733 18.529 9.504C18.625 9.28 18.673 9.05067 18.673 8.816ZM29.9254 10C29.584 10.6613 29.104 11.2053 28.4854 11.632C27.8774 12.048 27.1147 12.256 26.1974 12.256C25.5894 12.256 25.0294 12.1547 24.5174 11.952C24.016 11.7387 23.5787 11.4453 23.2054 11.072C22.8427 10.6987 22.5547 10.2613 22.3414 9.76C22.1387 9.248 22.0374 8.688 22.0374 8.08C22.0374 7.472 22.1387 6.912 22.3414 6.4C22.5547 5.888 22.8427 5.45067 23.2054 5.088C23.5787 4.71467 24.016 4.42667 24.5174 4.224C25.0294 4.01067 25.5894 3.904 26.1974 3.904C27.104 3.904 27.8667 4.112 28.4854 4.528C29.104 4.944 29.5574 5.48267 29.8454 6.144L27.9254 6.944C27.744 6.58133 27.5094 6.30933 27.2214 6.128C26.944 5.936 26.592 5.84 26.1654 5.84C25.888 5.84 25.6267 5.89333 25.3814 6C25.136 6.10667 24.9174 6.256 24.7254 6.448C24.544 6.64 24.4 6.87467 24.2934 7.152C24.1867 7.42933 24.1334 7.73867 24.1334 8.08C24.1334 8.42133 24.1867 8.73067 24.2934 9.008C24.4 9.28533 24.544 9.52 24.7254 9.712C24.9174 9.904 25.136 10.0533 25.3814 10.16C25.6267 10.2667 25.888 10.32 26.1654 10.32C26.6027 10.32 26.9707 10.224 27.2694 10.032C27.5787 9.82933 27.824 9.54133 28.0054 9.168L29.9254 10ZM31.3641 0.544H33.4601V6.784H33.5561L36.1801 4.16H38.7721V4.288L35.8601 7.12L39.0121 11.872V12H36.5321L34.3881 8.56L33.4601 9.472V12H31.3641V0.544ZM41.9125 1.456C41.9125 1.744 41.8112 1.98933 41.6085 2.192C41.4058 2.39467 41.1605 2.496 40.8725 2.496C40.5845 2.496 40.3392 2.39467 40.1365 2.192C39.9338 1.98933 39.8325 1.744 39.8325 1.456C39.8325 1.168 39.9338 0.922666 40.1365 0.719999C40.3392 0.517333 40.5845 0.415999 40.8725 0.415999C41.1605 0.415999 41.4058 0.517333 41.6085 0.719999C41.8112 0.922666 41.9125 1.168 41.9125 1.456ZM41.6085 4.16V12H40.1365V4.16H41.6085ZM43.6841 4.16H45.0921V5.248H45.1561C45.3801 4.864 45.7215 4.544 46.1801 4.288C46.6495 4.032 47.1348 3.904 47.6361 3.904C48.5961 3.904 49.3321 4.18133 49.8441 4.736C50.3668 5.28 50.6281 6.05867 50.6281 7.072V12H49.1561V7.168C49.1241 5.888 48.4788 5.248 47.2201 5.248C46.6335 5.248 46.1428 5.488 45.7481 5.968C45.3535 6.43733 45.1561 7.00267 45.1561 7.664V12H43.6841V4.16ZM55.9579 10.912C56.6832 10.912 57.2752 10.6507 57.7339 10.128C58.2139 9.60533 58.4539 8.92267 58.4539 8.08C58.4539 7.25867 58.2139 6.58133 57.7339 6.048C57.2645 5.51467 56.6725 5.248 55.9579 5.248C55.2539 5.248 54.6619 5.51467 54.1819 6.048C53.7019 6.58133 53.4619 7.25867 53.4619 8.08C53.4619 8.912 53.7019 9.58933 54.1819 10.112C54.6619 10.6453 55.2539 10.912 55.9579 10.912ZM55.9099 15.712C55.4725 15.712 55.0619 15.6533 54.6779 15.536C54.2939 15.4293 53.9419 15.2747 53.6219 15.072C53.3125 14.8693 53.0459 14.6293 52.8219 14.352C52.5979 14.0747 52.4272 13.7653 52.3099 13.424L53.7019 12.848C53.8619 13.3067 54.1392 13.6747 54.5339 13.952C54.9285 14.2293 55.3872 14.368 55.9099 14.368C56.7099 14.368 57.3339 14.128 57.7819 13.648C58.2299 13.168 58.4539 12.5067 58.4539 11.664V10.912H58.3899C58.1125 11.328 57.7339 11.6587 57.2539 11.904C56.7845 12.1387 56.2725 12.256 55.7179 12.256C54.6939 12.256 53.8139 11.856 53.0779 11.056C52.3525 10.2347 51.9899 9.24267 51.9899 8.08C51.9899 6.91733 52.3525 5.93067 53.0779 5.12C53.8139 4.30933 54.6939 3.904 55.7179 3.904C56.2725 3.904 56.7845 4.02667 57.2539 4.272C57.7339 4.50667 58.1125 4.832 58.3899 5.248H58.4539V4.16H59.8619V11.664C59.8619 12.9227 59.5045 13.9093 58.7899 14.624C58.0645 15.3493 57.1045 15.712 55.9099 15.712Z" fill="black"/>
</svg>
