<svg width="24" height="25" viewBox="0 0 24 25" fill="none" xmlns="http://www.w3.org/2000/svg">
    <path d="M5.46973 9.41553C7.40272 9.41553 8.96973 7.84852 8.96973 5.91553C8.96973 3.98253 7.40272 2.41553 5.46973 2.41553C3.53673 2.41553 1.96973 3.98253 1.96973 5.91553C1.96973 7.84852 3.53673 9.41553 5.46973 9.41553Z" stroke="currentColor" stroke-width="1.5"/>
    <path d="M16.9697 15.4155H19.9697C21.0697 15.4155 21.9697 16.3155 21.9697 17.4155V20.4155C21.9697 21.5155 21.0697 22.4155 19.9697 22.4155H16.9697C15.8697 22.4155 14.9697 21.5155 14.9697 20.4155V17.4155C14.9697 16.3155 15.8697 15.4155 16.9697 15.4155Z" stroke="currentColor" stroke-width="1.5"/>
    <path d="M11.9997 5.41553H14.6797C16.5297 5.41553 17.3897 7.70553 15.9997 8.92553L8.0097 15.9155C6.6197 17.1255 7.4797 19.4155 9.3197 19.4155H11.9997" stroke="currentColor" stroke-width="1.5" stroke-linecap="round" stroke-linejoin="round"/>
    <path d="M5.48573 5.91553H5.49728" stroke="currentColor" stroke-width="2" stroke-linecap="round" stroke-linejoin="round"/>
    <path d="M18.4857 18.9155H18.4973" stroke="currentColor" stroke-width="2" stroke-linecap="round" stroke-linejoin="round"/>
</svg>
